<?xml version="1.0" standalone="no"?><!DOCTYPE svg PUBLIC "-//W3C//DTD SVG 1.1//EN" "http://www.w3.org/Graphics/SVG/1.1/DTD/svg11.dtd"><svg t="1707043282111" class="icon" viewBox="0 0 1024 1024" version="1.1" xmlns="http://www.w3.org/2000/svg" p-id="2070" xmlns:xlink="http://www.w3.org/1999/xlink" width="200" height="200"><path d="M79.127273 100.072727c-6.981818 18.618182-9.309091 109.381818-4.654546 204.8l6.981818 172.218182h395.636364v-395.636364l-193.163636-6.981818c-146.618182-4.654545-195.490909 0-204.8 25.6zM544.581818 100.072727c-6.981818 18.618182-9.309091 109.381818-4.654545 204.8l6.981818 172.218182h395.636364v-395.636364l-193.163637-6.981818c-146.618182-4.654545-195.490909 0-204.8 25.6zM79.127273 565.527273c-6.981818 18.618182-9.309091 109.381818-4.654546 204.8l6.981818 172.218182h395.636364v-395.636364l-193.163636-6.981818c-146.618182-4.654545-195.490909 0-204.8 25.6zM544.581818 565.527273c-6.981818 18.618182-9.309091 109.381818-4.654545 204.8l6.981818 172.218182h395.636364v-395.636364l-193.163637-6.981818c-146.618182-4.654545-195.490909 0-204.8 25.6z" fill="#FF5777" p-id="2071"></path></svg>