<?xml version="1.0" standalone="no"?><!DOCTYPE svg PUBLIC "-//W3C//DTD SVG 1.1//EN" "http://www.w3.org/Graphics/SVG/1.1/DTD/svg11.dtd"><svg t="1707043431760" class="icon" viewBox="0 0 1024 1024" version="1.1" xmlns="http://www.w3.org/2000/svg" p-id="2420" xmlns:xlink="http://www.w3.org/1999/xlink" width="200" height="200"><path d="M256 235.054545C30.254545 423.563636-18.618182 488.727273 67.490909 488.727273c44.218182 0 46.545455 16.290909 53.527273 237.381818l6.981818 239.709091h279.272727L418.909091 861.090909c16.290909-128 34.909091-162.909091 93.090909-162.909091s76.8 34.909091 93.090909 162.909091l11.636364 104.727273h279.272727l6.981818-237.381818c6.981818-223.418182 9.309091-239.709091 53.527273-239.709091 30.254545 0 44.218182-13.963636 39.563636-34.909091C986.763636 407.272727 556.218182 46.545455 512 48.872727c-18.618182 0-134.981818 83.781818-256 186.181818z m432.872727 60.509091l151.272728 130.327273-6.981819 235.054546-6.981818 235.054545h-69.818182c-65.163636 0-69.818182-4.654545-76.8-104.727273-9.309091-132.654545-58.181818-186.181818-167.563636-186.181818s-158.254545 53.527273-167.563636 186.181818c-6.981818 100.072727-11.636364 104.727273-76.8 104.727273h-69.818182l-6.981818-232.727273-6.981819-232.727272 146.618182-132.654546c81.454545-74.472727 160.581818-132.654545 176.872728-134.981818 18.618182 0 100.072727 58.181818 181.527272 132.654545z" fill="#FF5777" p-id="2421"></path></svg>